<svg width="159" height="199" viewBox="0 0 159 199" fill="none" xmlns="http://www.w3.org/2000/svg">
<path d="M7.10973e-06 3.83373C7.42039e-06 2.17687 1.34315 0.672577 3.00001 0.672577H155.329C156.985 0.672577 158.329 2.17687 158.329 3.83372C158.329 194.592 158.329 3.83372 158.329 194.592C158.329 196.249 156.985 197.754 155.329 197.754H77H3.00001C1.34315 197.754 8.3213e-06 196.249 8.99137e-06 194.592C8.61383e-05 3.83377 -2.86575e-05 194.593 7.10973e-06 3.83373Z" fill="white"/>
<line x1="0.662415" y1="20.5844" x2="159" y2="20.5844" stroke="#DBE9FF" stroke-width="0.5"/>
<line x1="0.662415" y1="20.5844" x2="159" y2="20.5844" stroke="#DBE9FF" stroke-width="0.5"/>
<line x1="0.662415" y1="35.8611" x2="159" y2="35.8611" stroke="#DBE9FF" stroke-width="0.5"/>
<line x1="0.662415" y1="35.8611" x2="159" y2="35.8611" stroke="#DBE9FF" stroke-width="0.5"/>
<line x1="0.662415" y1="51.1379" x2="159" y2="51.1379" stroke="#DBE9FF" stroke-width="0.5"/>
<line x1="0.662415" y1="51.1379" x2="159" y2="51.1379" stroke="#DBE9FF" stroke-width="0.5"/>
<line x1="0.662415" y1="66.4147" x2="159" y2="66.4147" stroke="#DBE9FF" stroke-width="0.5"/>
<line x1="0.662415" y1="66.4147" x2="159" y2="66.4147" stroke="#DBE9FF" stroke-width="0.5"/>
<line x1="0.662415" y1="81.6915" x2="159" y2="81.6915" stroke="#DBE9FF" stroke-width="0.5"/>
<line x1="0.662415" y1="81.6915" x2="159" y2="81.6915" stroke="#DBE9FF" stroke-width="0.5"/>
<line x1="0.662415" y1="96.9682" x2="159" y2="96.9682" stroke="#DBE9FF" stroke-width="0.5"/>
<line x1="0.662415" y1="96.9682" x2="159" y2="96.9682" stroke="#DBE9FF" stroke-width="0.5"/>
<line x1="0.662415" y1="112.245" x2="159" y2="112.245" stroke="#DBE9FF" stroke-width="0.5"/>
<line x1="0.662415" y1="112.245" x2="159" y2="112.245" stroke="#DBE9FF" stroke-width="0.5"/>
<line x1="0.662415" y1="127.522" x2="159" y2="127.522" stroke="#DBE9FF" stroke-width="0.5"/>
<line x1="0.662415" y1="127.522" x2="159" y2="127.522" stroke="#DBE9FF" stroke-width="0.5"/>
<line x1="0.662415" y1="142.799" x2="159" y2="142.799" stroke="#DBE9FF" stroke-width="0.5"/>
<line x1="0.662415" y1="142.799" x2="159" y2="142.799" stroke="#DBE9FF" stroke-width="0.5"/>
<line x1="0.662415" y1="158.075" x2="159" y2="158.075" stroke="#DBE9FF" stroke-width="0.5"/>
<line x1="0.662415" y1="158.075" x2="159" y2="158.075" stroke="#DBE9FF" stroke-width="0.5"/>
<line x1="0.662415" y1="173.352" x2="159" y2="173.352" stroke="#DBE9FF" stroke-width="0.5"/>
<line x1="0.662415" y1="173.352" x2="159" y2="173.352" stroke="#DBE9FF" stroke-width="0.5"/>
<line x1="0.662415" y1="188.629" x2="159" y2="188.629" stroke="#DBE9FF" stroke-width="0.5"/>
<line x1="0.662415" y1="188.629" x2="159" y2="188.629" stroke="#DBE9FF" stroke-width="0.5"/>
<line x1="30.7744" x2="30.7744" y2="198.603" stroke="#ED6767" stroke-width="0.5"/>
<ellipse cx="15.2461" cy="29.8615" rx="3.47232" ry="3.47199" fill="#D9D9D9"/>
<ellipse cx="15.2461" cy="179.852" rx="3.47232" ry="3.47199" fill="#D9D9D9"/>
<ellipse cx="15.2461" cy="103.468" rx="3.47232" ry="3.47199" fill="#D9D9D9"/>
</svg>
