<svg width="153" height="144" viewBox="0 0 153 144" fill="none" xmlns="http://www.w3.org/2000/svg">
<path d="M77 0.0104108C84.5 -0.489589 127.569 17.1594 132.087 23.0104C136.604 28.8614 151.587 64.5104 151.587 70.5104C151.587 76.5104 145.5 110.51 142 115.51C138.5 120.51 92 141.01 84.5 143.01C77 145.01 25 136.01 20.4315 134.01C15.8629 132.01 0 75.5104 0 70.5104C0 65.5104 15.2764 25.8083 20.4315 20.6594C25.5865 15.5104 69.5 0.510411 77 0.0104108Z" fill="#D9D9D9"/>
<path d="M132.979 49.1317C134.892 35.1317 128.461 17.2911 132.979 23.1421C137.497 28.9932 152.479 64.6421 152.479 70.6421C152.479 76.6421 146.392 110.642 142.892 115.642C139.392 120.642 92.8922 141.142 85.3922 143.142C77.8922 145.142 25.8923 136.142 21.3237 134.142C16.7552 132.142 61.9787 125.051 66.4788 122.398C70.9788 119.745 100.824 94.0469 105.979 88.8979C111.134 83.749 131.065 63.1317 132.979 49.1317Z" fill="#C0C0C0"/>
</svg>
