<svg width="200" height="202" viewBox="0 0 200 202" fill="none" xmlns="http://www.w3.org/2000/svg">
<path fill-rule="evenodd" clip-rule="evenodd" d="M174.929 41.5735C163.765 35.8166 153.829 30.4163 144.818 25.5182C140.952 23.4167 137.256 21.4076 133.705 19.5024C121.98 13.2101 111.792 8.02146 102.735 4.69848C93.668 1.3715 85.2715 -0.265386 77.221 1.00001C69.0407 2.28583 61.8495 6.46337 55.0338 13.552C50.6202 18.1424 45.5532 23.0089 40.2624 28.0912C39.6624 28.6675 39.0591 29.2469 38.454 29.8287C32.5524 35.5025 26.4607 41.4077 20.9816 47.282C15.5174 53.1404 10.5194 59.1165 6.86603 64.9655C3.2579 70.742 0.637949 76.8983 0.637949 83.0175L0.637939 143.018C0.637953 159.533 9.03446 172.19 22.6925 181.521C36.1551 190.719 54.9486 196.882 76.7235 200.933L77.1768 201.018H77.638C107.33 201.018 133.045 198.266 152.637 190.952C172.398 183.574 186.435 171.324 191.472 152.297L191.526 152.09L191.563 151.879C195.065 131.867 197.528 116.288 198.844 103.922C200.156 91.5914 200.365 82.1516 199.206 74.5172C198.023 66.7202 195.414 60.8145 191.233 55.629C187.187 50.6109 181.804 46.4559 175.56 41.9598L175.259 41.7433L174.929 41.5735ZM62.2421 20.483C67.926 14.5716 73.236 11.7492 78.7737 10.8787C84.4414 9.98789 90.9838 11.0385 99.2907 14.0865C107.609 17.1385 117.234 22.0124 128.977 28.3139C132.445 30.1751 136.095 32.1586 139.933 34.2451C144.18 36.5536 148.66 38.9883 153.382 41.5227L151.138 40.316C150.968 51.345 150.549 69.1791 148.37 83.2889C147.275 90.3758 145.899 96.5739 144.243 101.041C143.411 103.284 141.733 104.029 141.002 105.017C140.525 105.664 135.05 107.734 131.706 108.5C124.4 110.174 123.992 112.448 115.234 117.41C106.589 122.309 97.9444 128.636 93.6441 135.286C90.2732 140.499 87.3501 147.664 84.875 153.732C84.4649 154.737 84.0671 155.712 83.6816 156.643C82.2559 160.087 81.3513 161.994 80.2064 164C79.7033 164.881 75.4871 166.642 75.2064 166.974C71.926 167.494 65.1297 168.371 54.0407 169.439C42.3887 170.561 30.5897 171.524 25.9781 171.571C15.9171 163.953 10.638 154.628 10.6379 143.018L10.638 83.0175C10.638 79.6366 12.1432 75.393 15.3474 70.2633C18.5063 65.206 23.0089 59.7696 28.2943 54.103C33.5648 48.4523 39.474 42.72 45.3845 37.0376C45.9897 36.4557 46.5953 35.8741 47.2002 35.293C52.4631 30.2381 57.6811 25.2267 62.2421 20.483ZM36.5684 177.518C46.6273 181.883 64.1287 188.393 78.1001 191.017C107.199 190.988 131.327 188.234 149.139 181.583C166.796 174.991 177.743 164.803 181.751 149.939C185.228 130.058 187.627 114.828 188.9 102.863C190.182 90.8186 190.286 82.3834 189.32 76.0178C188.378 69.8148 186.424 65.5955 183.449 61.906C180.389 58.1109 176.111 54.6903 170.016 50.2908C167.115 48.7936 164.291 47.3177 161.543 45.8677C167.43 53.0175 173.706 55 178.706 63.5C183.706 72 182.386 84.535 182.068 96.5175C181.751 108.5 180.794 118 177.5 128C171.483 135.5 172.638 145.017 170.638 152.297C170.638 158.017 160.638 169.439 152.637 174.017C144.636 178.596 137.107 177.991 127 180.018C119.5 181.521 116 181.102 109.5 183.517C106.5 186.517 92.7936 186.983 86.5 186C80.2064 185.017 78.4604 185.017 75.138 185.017C72.1381 184.5 71.1378 185.517 67.138 185.017C63.1381 185.017 61.1379 184.517 59.138 183.517C57.138 182.518 54.0682 181.521 49.0684 180.018C46.0001 179.518 40.773 177.168 36.5684 177.518ZM78.4264 166.974C78.4264 166.974 78.4377 166.963 78.4605 166.946C78.4378 166.966 78.4264 166.974 78.4264 166.974Z" fill="#6F7682"/>
</svg>
