<svg width="187" height="197" viewBox="0 0 187 197" fill="none" xmlns="http://www.w3.org/2000/svg">
<path d="M108.1 95.938L102.394 85.6849L57.6531 110.584L65.272 115.5L108.1 95.938Z" fill="#D9D9D9"/>
<path d="M185.351 39.5179C186.645 41.8436 186.528 44.9247 185.007 48.5853C183.486 52.246 180.59 56.4145 176.486 60.8527C172.381 65.291 167.147 69.9122 161.083 74.4525C155.019 78.9928 148.244 83.3631 141.145 87.3141C134.045 91.2652 126.76 94.7194 119.706 97.4796C112.652 100.24 105.966 102.252 100.031 103.401C94.0954 104.551 89.0267 104.814 85.1141 104.178C81.2015 103.541 78.5215 102.016 77.2272 99.6907C77.2272 99.6907 93.0255 90.8666 98.1994 88.0192C114.193 79.2171 131.289 69.6043 131.289 69.6043L185.351 39.5179Z" fill="#D9D9D9"/>
<ellipse cx="32.5777" cy="115.979" rx="18.1342" ry="35.2017" transform="rotate(60.9032 32.5777 115.979)" fill="#ED6767"/>
<ellipse cx="33.0437" cy="115.72" rx="9.60048" ry="22.9345" transform="rotate(60.9032 33.0437 115.72)" fill="#484848"/>
<path d="M79.4987 97.1915L85.2048 107.445L40.464 132.344L40.3019 123.278L79.4987 97.1915Z" fill="#ED6767"/>
<path d="M92.9367 85.6559L103.974 89.6384L86.5957 137.802L80.5184 131.073L92.9367 85.6559Z" fill="#BDBDBD"/>
<path d="M136.197 0.335921C133.693 -0.567436 132.176 0.586413 128.807 2.6765C125.439 4.76659 121.791 8.29504 118.07 13.0604C114.35 17.8257 110.631 23.7346 107.125 30.4497C103.619 37.1648 100.396 44.5546 97.6381 52.1972C94.8805 59.8397 92.643 67.5854 91.0534 74.9919C89.4638 82.3984 88.5531 89.3207 88.3735 95.3636C88.1939 101.406 87.2438 105.909 88.5015 109.668C89.7592 113.427 91.6952 115.827 94.1987 116.73C94.1987 116.73 100.367 99.7183 102.345 94.1537C108.46 76.9521 115.198 58.5331 115.198 58.5331L136.197 0.335921Z" fill="#BDBDBD"/>
<ellipse cx="18.1342" cy="35.2017" rx="18.1342" ry="35.2017" transform="matrix(-0.94064 -0.339405 -0.339405 0.94064 114.672 135.458)" fill="#ED6767"/>
<ellipse cx="9.60048" cy="22.9345" rx="9.60048" ry="22.9345" transform="matrix(-0.94064 -0.339405 -0.339405 0.94064 102.662 143.599)" fill="#484848"/>
<path d="M96.662 113.083L85.6247 109.1L68.2463 157.264L77.2199 155.965L96.662 113.083Z" fill="#ED6767"/>
<ellipse cx="94.2441" cy="96.9918" rx="4" ry="4.5" transform="rotate(8.72363 94.2441 96.9918)" fill="#D9D9D9"/>
</svg>
